<?xml version="1.0" encoding="UTF-8"?>
<svg width="64px" height="64px" viewBox="0 0 64 64" version="1.1" xmlns="http://www.w3.org/2000/svg" xmlns:xlink="http://www.w3.org/1999/xlink">
    <title>E1223DE0-D8BA-438E-82A8-6AB7D9075600</title>
    <defs>
        <path d="M25.8856181,0.781048584 C26.8469086,1.74233915 26.9208541,3.2549553 26.1074544,4.30106518 L25.8856181,4.55228475 L9.107,21.333 L45.3333333,21.3333333 C46.8060927,21.3333333 48,22.5272407 48,24 C48,25.3675622 46.9705595,26.4946858 45.644323,26.648726 L45.3333333,26.6666667 L9.106,26.666 L25.8856181,43.4477153 C26.8469086,44.4090058 26.9208541,45.921622 26.1074544,46.9677318 L25.8856181,47.2189514 C24.9243275,48.180242 23.4117114,48.2541874 22.3656015,47.4407877 L22.1143819,47.2189514 L0.781048584,25.8856181 L0.673005892,25.7710395 C0.668969009,25.7664984 0.664947406,25.7619435 0.660941163,25.7573748 L0.781048584,25.8856181 C0.725375385,25.8299449 0.672678478,25.7724225 0.622957864,25.7132485 C0.595384529,25.6802295 0.568749312,25.6468984 0.54291049,25.6129287 C0.533020778,25.600228 0.52332893,25.587257 0.513770455,25.5742187 C0.4892018,25.5403434 0.465253934,25.5059871 0.442106906,25.4710539 C0.430735206,25.4543178 0.419707692,25.4372576 0.408894638,25.4201009 C0.390542724,25.3905381 0.372697567,25.3609641 0.355417504,25.3310228 C0.341740373,25.3077379 0.328693642,25.2842933 0.316027639,25.2606983 C0.210781582,25.0645056 0.129168904,24.8535699 0.0752864784,24.6317875 C0.0692978057,24.6061298 0.0635379772,24.5807801 0.0581522457,24.555367 C0.050418349,24.5200171 0.0435502938,24.4839736 0.0374154462,24.4476809 C0.0351117184,24.4327981 0.0328051664,24.4184551 0.0306160135,24.4040977 C0.0241313392,24.362805 0.0187161622,24.3204933 0.0143043023,24.2778839 C0.0119787422,24.2542937 0.00989041918,24.2313147 0.00809920417,24.2083168 C0.00608094591,24.1833334 0.00446177424,24.1576894 0.00320755147,24.1319496 C0.00137605132,24.0938217 0.000323414212,24.0561625 6.37637257e-05,24.0184988 C2.23232651e-05,24.0127314 0,24.0063683 0,24 L0.000320868011,23.9585038 C0.000846627642,23.9245091 0.00201850152,23.8905226 0.00383648965,23.8565642 L0,24 C0,23.9269815 0.00293476529,23.8546484 0.0086927762,23.7831122 C0.0158080087,23.6962355 0.0271828111,23.6090494 0.0428570568,23.522489 C0.0741416427,23.3481495 0.12264711,23.1795841 0.186354142,23.0186948 C0.19514986,22.9965395 0.203939162,22.9751315 0.213018714,22.9538177 C0.225561008,22.9244786 0.238822597,22.8949162 0.252600884,22.8656451 C0.267598175,22.8335134 0.283148423,22.8020632 0.299356867,22.7708662 C0.307829459,22.7549313 0.31652718,22.738625 0.325388227,22.7224207 C0.340905788,22.6936236 0.35690135,22.6655806 0.373446685,22.6377737 C0.392449838,22.6062871 0.412022226,22.5749098 0.432219545,22.5439777 C0.441240404,22.5297384 0.45054925,22.5157761 0.460003839,22.5018832 C0.483405804,22.4678764 0.507523355,22.4341339 0.532394948,22.4009898 C0.541096253,22.3891023 0.550098577,22.3773226 0.559212299,22.3656015 L0.56584211,22.3573581 C0.639368944,22.2634548 0.719054955,22.174606 0.804292191,22.0914196 L22.1143819,0.781048584 C23.15578,-0.260349528 24.84422,-0.260349528 25.8856181,0.781048584 Z" id="path-1"></path>
    </defs>
    <g id="___Symbols" stroke="none" stroke-width="1" fill="none" fill-rule="evenodd">
        <g id="ZZ_Color-Override/Black" transform="translate(8.000000, 8.000000)">
            <mask id="mask-2" fill="white">
                <use xlink:href="#path-1"></use>
            </mask>
            <g id="Mask" fill-rule="nonzero" transform="translate(24.000000, 24.000000) scale(-1, 1) translate(-24.000000, -24.000000) "></g>
            <g id="ZZ_Color-Override/05_Interface/Neutrals/1-LabelPrimary" mask="url(#mask-2)" fill="#000000" fill-opacity="0.9">
                <g transform="translate(-8.000000, -8.000000)" id="Rectangle">
                    <rect x="0" y="0" width="64" height="64"></rect>
                </g>
            </g>
        </g>
    </g>
</svg>